<svg height="32" width="32" xmlns="http://www.w3.org/2000/svg" xmlns:xlink="http://www.w3.org/1999/xlink">
  <filter id="a" color-interpolation-filters="sRGB" height="1.722555" width="1.214838" x="-.107419" y="-.361277">
    <feGaussianBlur stdDeviation="1.204113"/>
  </filter>
  <g transform="translate(-24 -946.36218)">
    <path d="m140.87152 624.90768c-.0977.0171-.19284.0488-.28125.0937l-6 3c-.68519.3198-.68519 1.4927 0 1.8125l6 3c.5108.2396 1.19916-.0576 1.375-.59375l.84375-2.5c.0373-.0999.0585-.20589.0625-.3125v-1c-.004-.10661-.0252-.21256-.0625-.3125l-.84375-2.5c-.14169-.4462-.63024-.75329-1.09375-.6875zm13.03125 0c-.37038.0526-.69929.33094-.8125.6875l-.84375 2.5c-.0373.0999-.0585.20589-.0625.3125v1c.004.10661.0252.21256.0625.3125l.84375 2.5c.17584.53611.8642.83335 1.375.59375l6-3c.68519-.3198.68519-1.4927 0-1.8125l-6-3c-.17322-.0846-.37122-.11755-.5625-.0937zm-6.40625.46875c-1.92115 0-3.5 1.57885-3.5 3.5s1.57885 3.5 3.5 3.5 3.5-1.57885 3.5-3.5-1.57885-3.5-3.5-3.5z" filter="url(#a)" opacity=".2" transform="matrix(0 -1 -1 0 669.42606 1110.4261)"/>
    <path d="m44.51836 968.55453c-.0171.0977-.0488.19284-.0937.28125l-3 6c-.3198.68519-1.4927.68519-1.8125 0l-3-6c-.2396-.51081.0576-1.19917.59375-1.37501l2.5-.84374c.1-.0373.20589-.0585.3125-.0625l1-.00001c.10663.004.21256.0252.3125.0625l2.5.84375c.44621.14168.75329.63024.6875 1.09375zm0-13.03125c-.0526.37039-.33093.6993-.68749.81251l-2.5.84376c-.1.0373-.20588.0585-.31249.0625l-1 .00001c-.10663-.004-.21257-.0252-.31251-.0625l-2.49999-.84376c-.5361-.17584-.83336-.86418-.59375-1.375l3-6c.3198-.68519 1.4927-.68519 1.8125 0l3 6c.0846.17323.11755.37122.0937.5625zm-.46875 6.40625c0 1.92115-1.57885 3.5-3.5 3.49999-1.92115 0-3.5-1.57885-3.49999-3.49999-.00001-1.92115 1.57884-3.5 3.49999-3.5s3.5 1.57885 3.5 3.5z" fill="#d8dee9"/>
    <path d="m43.52776 968.4077-3.00001 6-3-6 2.5-.84375h1zm-.00001-13-2.49999.84375h-1.00001l-2.5-.84375 3-6z" fill="#3b4252"/>
    <circle cx="45" cy="386.36218" fill="#81a1c1" r="2" transform="matrix(-1.2500003 0 0 1.2500003 96.80556 478.90934)"/>
  </g>
</svg>
